<svg xmlns="http://www.w3.org/2000/svg" width="130.98" height="60" viewBox="0 0 130.98 114.39">
  <path id="Anfuehrungszeichen" d="M31.513,156c-13.971,0-21.83,8.732-21.83,18.337,0,19.647,18.337,24.013,22.267,25.759,3.056,1.31,6.549,6.549,6.549,12.225,0,20.957-18.337,40.6-27.506,48.9C7.5,263.841,7.5,264.714,7.5,266.9s1.31,3.493,4.366,3.493c3.493,0,5.676-2.183,7.859-3.493,7.859-4.8,45.843-32.309,45.843-73.349C65.568,169.1,45.048,156,31.513,156Zm72.476,0c-13.535,0-21.83,8.732-21.83,18.337,0,19.647,18.774,24.013,22.267,25.759,3.056,1.31,6.549,6.549,6.549,12.225,0,20.957-17.9,40.6-27.506,48.9-3.493,2.62-3.493,3.493-3.493,5.676s1.31,3.493,4.366,3.493c3.493,0,6.112-2.183,8.3-3.493,7.859-4.8,45.843-32.309,45.843-73.349C138.48,169.1,117.524,156,103.989,156Z" transform="translate(-7.5 -156)" fill="rgba(255,255,255,1)"/>
</svg>
